<svg width="222" height="163" viewBox="0 0 222 163" fill="none" xmlns="http://www.w3.org/2000/svg">
<path d="M196.17 18.1718C196.17 18.1718 185.364 14.8601 178.566 19.7404C171.768 24.621 175.951 39.6106 173.686 46.5828C171.419 53.555 171.419 59.4812 181.878 61.0498C192.336 62.6184 193.73 48.3258 193.73 48.3258L196.17 18.1718Z" fill="#76413B"/>
<path d="M173.164 70.8107C173.164 70.8107 175.082 90.5068 177.696 93.4699C180.31 96.433 184.842 97.1301 184.842 97.1301L183.622 69.0676L173.164 70.8107Z" fill="#DD908A"/>
<path d="M164.1 83.186C164.1 83.186 161.137 85.975 164.797 90.6808C168.457 95.387 182.75 106.716 187.282 104.625C191.814 102.533 185.365 93.9925 185.365 93.9925L164.1 83.186Z" fill="#FFAC9D"/>
<path d="M188.766 58.1263L187.706 56.7134C187.706 56.7134 174.812 55.1237 173.575 59.1862C172.339 63.2488 170.926 74.5534 170.926 74.5534L181.701 77.0262L188.766 58.1263Z" fill="#352C38"/>
<path d="M178.606 67.2134C176.43 66.0839 174.454 64.7658 172.661 63.1907C171.733 68.0982 170.926 74.5532 170.926 74.5532L181.701 77.026L184.414 69.769C182.437 69.016 180.49 68.1915 178.606 67.2134Z" fill="#1C181E"/>
<path d="M183.997 92.2169C183.997 92.2169 177.285 104.228 173.752 125.778C171.051 142.255 169.363 162.39 169.363 162.39H221.999C221.999 162.39 219.677 115.18 205.899 90.0974L183.997 92.2169Z" fill="#917946"/>
<path d="M199.171 138.884C191.785 144.549 183.727 149.155 174.696 151.63C173.237 152.03 171.768 152.372 170.292 152.666C169.692 158.466 169.363 162.391 169.363 162.391H221.999C221.999 162.391 220.84 138.836 215.304 116.163C211.811 124.966 206.766 133.059 199.171 138.884Z" fill="#263238"/>
<path d="M204.064 97.5227C205.878 97.7435 207.697 97.9398 209.519 98.1241C208.418 95.1961 207.216 92.4932 205.9 90.0974L183.997 92.2169C183.997 92.2169 183.65 92.8387 183.077 94.0411C190.086 95.0335 197.033 96.6672 204.064 97.5227Z" fill="#263238"/>
<path d="M197.857 37.7515C197.857 37.7515 197.857 59.5971 199.251 60.0622C200.646 60.5269 188.56 60.5269 188.56 60.5269L186.934 44.7236L197.857 37.7515Z" fill="#DD908A"/>
<path d="M187.883 53.1811L199.895 50.7083L200.424 55.6539C200.424 55.6539 209.433 52.6509 211.729 57.7734C214.025 62.8959 208.196 92.0408 208.196 92.0408L182.408 92.5706C182.408 92.5706 175.695 78.4399 177.815 67.8416C179.935 57.2436 179.935 57.2436 179.935 57.2436L187.707 56.7138L187.883 53.1811Z" fill="#352C38"/>
<path d="M199.116 75.3619C192.844 78.9393 186.255 82.0977 179.448 84.6287C180.832 89.2538 182.407 92.5706 182.407 92.5706L208.196 92.0408C208.196 92.0408 211.424 75.9002 212.129 65.5312C208.483 69.5768 203.614 72.7964 199.116 75.3619Z" fill="#1C181E"/>
<path d="M215.286 66.1045C215.286 66.1045 219.469 98.6407 215.518 100.035C211.567 101.43 188.56 83.3022 188.56 83.3022C188.56 83.3022 179.263 85.6262 181.587 82.8375C181.587 82.8375 179.496 82.1404 181.123 81.443C181.123 81.443 179.263 80.5132 180.426 80.0485C181.588 79.5838 161.601 82.6048 187.863 77.0271L206.687 85.3935L205.757 74.0058L215.286 66.1045Z" fill="#FFAC9D"/>
<path d="M216.713 80.1841C216.142 72.7625 215.285 66.1045 215.285 66.1045L205.757 74.0061L206.194 79.3654C209.511 80.5088 213.177 80.5766 216.713 80.1841Z" fill="#DD908A"/>
<path d="M203.666 77.4922C203.666 77.4922 211.905 78.0864 217.557 75.2603C217.557 75.2603 215.968 57.42 209.255 55.4773C202.543 53.5343 199.25 63.3159 203.666 77.4922Z" fill="#352C38"/>
<path d="M179.819 88.0967C180.034 88.5182 179.866 89.034 179.445 89.249L170.096 94.0151C169.675 94.2301 169.159 94.0625 168.944 93.641L158.634 73.4178C158.419 72.9964 158.586 72.4805 159.008 72.2656L168.356 67.4994C168.778 67.2845 169.293 67.4521 169.508 67.8735L179.819 88.0967Z" fill="#352C38"/>
<path d="M163.054 84.5806C163.054 84.5806 174.558 70.4622 165.32 83.8835C165.32 83.8835 178.567 72.2052 167.586 84.9292C167.586 84.9292 180.484 77.6084 167.411 87.1952C167.411 87.1952 181.704 80.3974 167.237 89.4612L169.328 94.3415C169.328 94.3415 161.311 88.7638 163.054 84.5806Z" fill="#FFAC9D"/>
<path d="M179.993 37.6113L175.517 37.9548" stroke="#6F96BD" stroke-width="2.0464" stroke-miterlimit="10"/>
<path d="M191.813 24.2719C191.813 24.2719 177.694 20.8383 177.694 36.6473C177.694 52.4564 191.29 58.9754 197.565 42.1886C203.84 25.4017 191.813 24.2719 191.813 24.2719Z" fill="#FFAC9D"/>
<path d="M186.933 21.6576C186.933 21.6576 185.713 31.244 192.684 37.6932C199.657 44.1424 190.244 62.0955 199.308 63.1411C208.372 64.1871 202.446 53.7288 209.94 55.6463C209.94 55.6463 211.335 48.3256 208.023 46.5825C204.711 44.8395 209.417 19.7401 198.262 16.777C187.107 13.8139 187.281 19.3916 186.933 21.6576Z" fill="#965450"/>
<path d="M191.267 44.2178C191.267 44.2178 185.158 45.8286 182.517 46.4C182.517 46.4 186.797 49.2292 191.267 44.2178Z" fill="white"/>
<path d="M182.261 37.1052C182.261 37.1052 182.294 37.2054 182.331 37.3866C182.366 37.5676 182.406 37.8299 182.402 38.1508C182.399 38.4708 182.361 38.8544 182.198 39.2557C182.155 39.3549 182.1 39.4544 182.044 39.5542C181.971 39.6469 181.913 39.7528 181.815 39.8322C181.723 39.9164 181.629 40.0002 181.51 40.0554C181.4 40.1259 181.278 40.1627 181.154 40.1947L181.061 40.2176L181.049 40.2203L181.011 40.2244H181.006L180.987 40.2251L180.949 40.2264L180.795 40.2312C180.691 40.2322 180.513 40.1981 180.391 40.161C180.148 40.0683 179.943 39.9075 179.807 39.7307C179.659 39.559 179.572 39.3689 179.495 39.1934C179.425 39.0159 179.38 38.8445 179.347 38.6861C179.282 38.3699 179.276 38.1038 179.279 37.9195C179.283 37.7345 179.299 37.6303 179.299 37.6303C179.299 37.6303 179.334 37.7287 179.395 37.9004C179.457 38.0701 179.547 38.3106 179.671 38.5815C179.735 38.7161 179.811 38.8558 179.892 38.9975C179.981 39.1331 180.079 39.2701 180.194 39.3808C180.303 39.5034 180.443 39.5634 180.574 39.6189C180.607 39.6312 180.634 39.6271 180.663 39.6356C180.696 39.6387 180.708 39.6585 180.769 39.6493L180.923 39.6394L180.961 39.637L180.98 39.6356L180.985 39.6353L180.987 39.635C180.922 39.6414 180.97 39.6363 180.956 39.6377L180.963 39.6353L181.019 39.6179C181.095 39.6009 181.171 39.5849 181.235 39.5426C181.307 39.516 181.365 39.4636 181.425 39.4142C181.488 39.3695 181.532 39.2953 181.591 39.2414C181.638 39.1723 181.687 39.1045 181.728 39.0312C181.805 38.88 181.878 38.7249 181.931 38.5672C181.983 38.4098 182.028 38.2554 182.065 38.1103C182.136 37.8193 182.183 37.5665 182.213 37.3883C182.244 37.2085 182.261 37.1052 182.261 37.1052Z" fill="#352C38"/>
<path d="M191.178 36.3328C191.178 36.3328 191.213 36.4387 191.25 36.6305C191.287 36.822 191.327 37.1 191.319 37.4397C191.313 37.7784 191.268 38.1845 191.086 38.6063C190.986 38.8117 190.865 39.0325 190.667 39.2066C190.569 39.2945 190.467 39.379 190.343 39.4362C190.227 39.5091 190.099 39.5466 189.969 39.5804L189.871 39.6042L189.859 39.6069L189.853 39.6083L189.813 39.6124L189.793 39.6131L189.752 39.6144L189.59 39.6202C189.545 39.627 189.462 39.6137 189.388 39.6018C189.314 39.5892 189.238 39.5759 189.167 39.5572C188.911 39.4625 188.684 39.3047 188.537 39.118C188.373 38.9402 188.279 38.7388 188.195 38.5535C188.158 38.4594 188.126 38.3674 188.096 38.2785C188.074 38.1882 188.053 38.1014 188.033 38.0175C187.962 37.683 187.956 37.4016 187.959 37.2063C187.963 37.0108 187.981 36.9004 187.981 36.9004C187.981 36.9004 188.017 37.0067 188.082 37.1862C188.148 37.3654 188.244 37.6193 188.376 37.9041C188.445 38.0455 188.525 38.1923 188.614 38.3395C188.709 38.4806 188.815 38.6237 188.938 38.7354C189.055 38.8642 189.207 38.9163 189.346 38.9759C189.38 38.9814 189.41 38.9831 189.442 38.9903C189.473 38.9961 189.496 39.011 189.56 39.0015L189.722 38.9903L189.763 38.9875L189.783 38.9862L189.786 38.9858C189.719 38.993 189.768 38.9875 189.754 38.9889L189.758 38.9879L189.765 38.9855L189.825 38.9671C189.906 38.9487 189.989 38.932 190.057 38.8874C190.135 38.8591 190.198 38.8063 190.262 38.7535C190.332 38.7095 190.378 38.6298 190.442 38.5743C190.495 38.5054 190.544 38.4308 190.592 38.3569C190.675 38.1985 190.756 38.0373 190.814 37.8717C190.871 37.7065 190.922 37.5446 190.963 37.3917C191.041 37.0854 191.092 36.8189 191.126 36.6309C191.159 36.4411 191.178 36.3328 191.178 36.3328Z" fill="#352C38"/>
<path d="M183.273 37.6931C183.399 37.8556 183.496 38.0406 183.579 38.2318C183.655 38.4246 183.724 38.6243 183.763 38.8307C183.784 38.9336 183.808 39.0372 183.818 39.1421C183.827 39.2471 183.844 39.3527 183.843 39.4583C183.845 39.5639 183.85 39.6709 183.848 39.7772L183.82 40.0954C183.81 40.2017 183.786 40.3056 183.769 40.4109C183.753 40.5169 183.731 40.6215 183.698 40.7227L183.606 41.0296L183.485 41.325C183.412 41.5267 183.292 41.7032 183.197 41.892C183.145 41.985 183.08 42.0678 183.022 42.1557L182.839 42.4122L182.745 41.9495C182.927 42.0773 183.113 42.1983 183.291 42.3318C183.468 42.4664 183.651 42.5931 183.824 42.7342C184.176 43.0091 184.519 43.298 184.842 43.619C184.409 43.4752 183.997 43.2994 183.593 43.1093C183.389 43.0183 183.194 42.9124 182.994 42.8146C182.794 42.7154 182.602 42.604 182.406 42.4994L182.131 42.3522L182.313 42.0364C182.36 41.954 182.406 41.8712 182.456 41.7911C182.504 41.7097 182.559 41.6327 182.6 41.5478C182.681 41.3795 182.782 41.2191 182.849 41.0453C182.926 40.8753 182.996 40.7032 183.053 40.5261C183.087 40.4389 183.116 40.3506 183.139 40.2607C183.163 40.1711 183.195 40.0821 183.213 39.9908C183.249 39.8082 183.289 39.6249 183.313 39.4375C183.331 39.3442 183.331 39.2498 183.34 39.1554C183.353 39.0604 183.354 38.9656 183.359 38.8696C183.364 38.6778 183.36 38.4839 183.348 38.2876C183.331 38.0928 183.312 37.8938 183.273 37.6931Z" fill="#B57572"/>
<path d="M183.336 37.1693C183.736 40.191 182.563 42.8383 180.717 43.0822C178.871 43.3262 177.051 41.0748 176.651 38.0531C176.252 35.0314 177.424 32.3841 179.27 32.1402C181.116 31.8962 182.937 34.1479 183.336 37.1693Z" stroke="#6F96BD" stroke-width="1.9771" stroke-miterlimit="10"/>
<path d="M193.636 36.4213C194.047 39.5286 192.562 42.2879 190.319 42.5847C188.076 42.8811 185.924 40.6028 185.514 37.4952C185.103 34.388 186.588 31.6287 188.831 31.3319C191.074 31.0351 193.225 33.3138 193.636 36.4213Z" stroke="#6F96BD" stroke-width="2.2102" stroke-miterlimit="10"/>
<path d="M183.535 38.5648C183.535 38.5648 184.232 36.386 185.627 38.3035" stroke="#6F96BD" stroke-width="2.0464" stroke-miterlimit="10"/>
<path d="M193.906 36.9088L196.608 36.8215" stroke="#6F96BD" stroke-width="2.0464" stroke-miterlimit="10"/>
<path d="M94.4493 30.0884C94.4493 30.0884 96.9024 41.3936 92.462 44.9461C88.0219 48.4983 76.0332 44.0579 79.8072 58.7109C83.5815 73.3639 109.113 88.2388 114.663 80.9122C120.214 73.5857 129.982 47.1662 119.992 45.8343C110.001 44.5022 106.893 50.4965 107.559 39.3961C108.225 28.2952 94.4493 30.0884 94.4493 30.0884Z" fill="#965450"/>
<path d="M94.7681 40.5909C95.8239 41.9517 97.1189 43.1264 98.3186 43.9322C101.437 46.0265 105.095 46.4119 108.745 46.4831C107.727 45.2984 107.332 43.1908 107.56 39.3957C108.226 28.2952 94.4502 30.0884 94.4502 30.0884C94.4502 30.0884 95.7268 35.9781 94.7681 40.5909Z" fill="#76413B"/>
<path d="M113.257 6.8608C113.257 6.8608 93.3572 -2.64486 91.764 11.3431C90.2595 24.5532 97.9182 44.1175 108.558 42.8368C113.837 42.2014 118.175 40.6737 116.881 28.2281C115.659 16.483 115.938 11.8085 113.257 6.8608Z" fill="#965450"/>
<path d="M101.009 11.6444C101.009 11.6444 101.564 16.3066 98.0121 17.4166C98.0121 17.4166 99.9704 33.3888 100.232 35.0665C100.553 37.124 103.347 38.6554 103.347 32.1061C103.347 26.8889 107.891 28.8503 110.001 28.6282C112.11 28.406 114.663 27.4071 114.996 31.6254C115.329 35.8436 117.438 33.4014 116.883 28.0732C116.883 28.0732 120.658 40.3947 115.107 42.7262C109.557 45.0573 97.5477 49.3996 96.1048 33.1926C94.6616 16.9856 92.2402 20.3031 91.2409 22.1902C90.242 24.0774 90.5748 30.2935 94.3492 30.5157C94.3492 30.5157 83.3594 20.9691 86.2458 13.0876C89.1319 5.20611 93.7941 7.53721 93.7941 7.53721C93.7941 7.53721 94.7931 2.20893 99.1224 0.987849C103.452 -0.233236 104.673 5.76112 110.556 1.20999C116.439 -3.34114 120.436 6.7604 123.322 1.98714C123.322 1.98714 124.21 6.7604 119.104 5.87219C119.104 5.87219 121.435 8.20329 123.433 5.09504C123.433 5.09504 122.656 13.5316 114.22 12.0883C105.783 10.6451 108.225 16.4177 101.009 11.6444Z" fill="#352C38"/>
<path d="M95.4589 25.9643C95.4589 25.9643 95.2293 19.2824 92.121 20.7253C89.0128 22.1685 90.3524 31.9587 95.5696 30.7376L95.4589 25.9643Z" fill="#965450"/>
<path d="M104.588 30.9678C104.588 30.9678 111.106 31.3817 113.9 31.4335C113.9 31.4335 110.123 35.1581 104.588 30.9678Z" fill="white"/>
<path d="M94.5524 29.6747C94.268 29.5489 93.9944 29.3932 93.7429 29.1967C93.6165 29.0989 93.499 28.9868 93.3927 28.8566C93.2884 28.7265 93.1927 28.5718 93.1573 28.379C93.1406 28.2839 93.1399 28.179 93.1651 28.0805C93.1865 27.9807 93.2319 27.8883 93.2857 27.8076C93.3954 27.6468 93.5371 27.5313 93.6802 27.4335C93.9722 27.2482 94.2806 27.1367 94.5879 27.0383L94.3903 27.3078C94.3058 26.4564 94.1811 25.5951 94.0104 24.7614C93.9225 24.3443 93.8114 23.9355 93.6802 23.544C93.5453 23.1611 93.3613 22.7774 93.1225 22.5604C93.0033 22.4538 92.8891 22.4057 92.7532 22.4146L92.7406 22.4142H92.7375H92.7358C92.7443 22.4125 92.7143 22.418 92.7545 22.4105L92.7447 22.4125L92.7045 22.4204L92.6241 22.4361C92.5733 22.4473 92.5597 22.4602 92.5235 22.4688C92.4537 22.4991 92.3842 22.5413 92.3195 22.5928C92.0554 22.8047 91.8919 23.1955 91.7846 23.5914C91.6749 23.9927 91.6254 24.421 91.589 24.851C91.5594 25.282 91.544 25.7184 91.5522 26.1579C91.4425 25.7317 91.3692 25.2946 91.3341 24.852C91.297 24.4091 91.2956 23.96 91.3617 23.5045C91.3938 23.2766 91.451 23.0486 91.5393 22.8228C91.6285 22.5982 91.7546 22.372 91.9488 22.1819C92.0459 22.0861 92.1607 22.0091 92.2885 21.9454C92.3556 21.9178 92.4408 21.8824 92.4963 21.8681L92.5757 21.848L92.6155 21.8381L92.6254 21.8357L92.653 21.8313L92.6602 21.8306L92.6884 21.8282C92.9896 21.7812 93.316 21.9035 93.5249 22.0814C93.7429 22.2568 93.8847 22.4701 94.0066 22.6793C94.1248 22.8906 94.2158 23.1062 94.2986 23.3222C94.4591 23.7542 94.5664 24.1941 94.6502 24.6333C94.7351 25.0728 94.8022 25.5126 94.8417 25.9545C94.8819 26.3974 94.9194 26.8345 94.9218 27.2843L94.9228 27.5098L94.7238 27.5541C94.4369 27.6178 94.1524 27.6993 93.9085 27.8222C93.7886 27.8839 93.6789 27.9568 93.6022 28.0427C93.5647 28.086 93.5341 28.1313 93.517 28.1807C93.4963 28.229 93.4894 28.2825 93.4918 28.3398C93.4959 28.5769 93.6789 28.8396 93.8738 29.059C94.0748 29.2805 94.3061 29.4862 94.5524 29.6747Z" fill="#76413B"/>
<path d="M109.813 28.5884C110.401 28.4535 110.992 28.3506 111.583 28.2535C112.174 28.156 112.766 28.0763 113.359 27.9966L113.119 28.3761C112.841 27.6886 112.583 26.999 112.351 26.2978C112.113 25.5994 111.907 24.8897 111.716 24.1763C111.621 23.8196 111.538 23.4581 111.459 23.0969C111.379 22.7361 111.3 22.3746 111.252 22.0057C111.2 21.638 111.128 21.2762 111.106 20.9038C111.08 20.5324 111.064 20.1618 111.055 19.7935C111.162 20.1505 111.261 20.5052 111.349 20.8592C111.389 21.037 111.451 21.2108 111.504 21.3863L111.661 21.912L111.813 22.4373L111.982 22.9593C112.098 23.3061 112.189 23.6587 112.308 24.0049C112.426 24.3507 112.53 24.701 112.639 25.0492C112.751 25.3967 112.871 25.7422 112.976 26.0924L113.648 28.1789L113.765 28.5445L113.408 28.5588C112.81 28.5826 112.213 28.6065 111.614 28.6123C111.015 28.6194 110.416 28.6201 109.813 28.5884Z" fill="#76413B"/>
<path d="M112.302 21.9544C112.302 21.9544 112.34 22.0552 112.407 22.232C112.473 22.4068 112.571 22.6535 112.701 22.9346C112.768 23.0742 112.845 23.2218 112.929 23.371C113.014 23.5202 113.119 23.663 113.227 23.8013C113.284 23.8674 113.347 23.9264 113.408 23.9873C113.479 24.0303 113.538 24.0967 113.611 24.1294C113.682 24.1676 113.751 24.2091 113.829 24.2217C113.903 24.2517 113.984 24.2531 114.064 24.2551L114.124 24.2616L114.132 24.2626C114.117 24.264 114.167 24.2596 114.1 24.266L114.102 24.2657L114.107 24.265L114.127 24.2626L114.166 24.2575L114.324 24.2371C114.388 24.234 114.396 24.2122 114.428 24.2023C114.456 24.188 114.485 24.1863 114.516 24.1676C114.637 24.0851 114.768 23.9962 114.854 23.85C114.948 23.7148 115.021 23.5563 115.084 23.401C115.138 23.2409 115.186 23.0841 115.225 22.9349C115.296 22.6354 115.339 22.3734 115.368 22.1891C115.396 22.0024 115.412 21.8958 115.412 21.8958C115.412 21.8958 115.449 21.9986 115.49 22.1854C115.53 22.3721 115.577 22.6429 115.574 22.9765C115.573 23.1434 115.561 23.3264 115.525 23.5206C115.483 23.7137 115.433 23.9243 115.316 24.128L115.227 24.282C115.192 24.3318 115.149 24.3788 115.108 24.4275C115.035 24.5314 114.917 24.603 114.809 24.681C114.693 24.743 114.52 24.8129 114.414 24.833L114.257 24.8589L114.218 24.8653L114.198 24.8684L114.193 24.8691L114.154 24.8725L114.142 24.8721L114.043 24.8674C113.91 24.8599 113.779 24.8469 113.653 24.7972C113.522 24.7648 113.41 24.6987 113.299 24.6316C113.184 24.5706 113.104 24.4749 113.012 24.3955C112.935 24.3052 112.86 24.2153 112.796 24.1233C112.55 23.7488 112.436 23.3673 112.369 23.0432C112.3 22.7186 112.288 22.4446 112.288 22.2538C112.288 22.0627 112.302 21.9544 112.302 21.9544Z" fill="#352C38"/>
<path d="M103.104 22.9512C103.104 22.9512 103.143 23.0599 103.216 23.2439C103.288 23.4279 103.393 23.6882 103.534 23.9832C103.605 24.1301 103.689 24.2841 103.78 24.4404C103.872 24.5965 103.986 24.744 104.102 24.8881C104.166 24.9532 104.23 25.0193 104.298 25.0786C104.374 25.1225 104.437 25.1937 104.517 25.2234C104.592 25.2639 104.668 25.3017 104.752 25.3167C104.83 25.3488 104.917 25.3505 105.003 25.3539L105.067 25.36L105.075 25.361L105.079 25.3614C105.064 25.3627 105.116 25.3583 105.046 25.3648L105.049 25.3644L105.07 25.3617L105.111 25.3563L105.278 25.3341C105.344 25.3304 105.364 25.3103 105.395 25.2987C105.426 25.2857 105.456 25.2782 105.489 25.2666C105.62 25.1808 105.763 25.0956 105.855 24.9426C105.958 24.8047 106.037 24.6384 106.106 24.4762C106.167 24.3093 106.218 24.1444 106.26 23.987C106.337 23.6715 106.384 23.3948 106.415 23.1999C106.446 23.0047 106.46 22.8899 106.46 22.8899C106.46 22.8899 106.5 22.9982 106.544 23.1958C106.586 23.3931 106.635 23.68 106.631 24.0333C106.627 24.1222 106.623 24.2149 106.619 24.3106C106.607 24.407 106.592 24.5065 106.573 24.6094C106.526 24.8138 106.47 25.037 106.34 25.2503C106.228 25.4697 106.029 25.6734 105.789 25.823C105.721 25.8564 105.647 25.8854 105.574 25.9136C105.501 25.9416 105.419 25.9712 105.372 25.9726L105.206 25.9978L105.165 26.0043L105.144 26.0073L105.103 26.0111L105.097 26.0107L105.084 26.0101L104.98 26.0046C104.842 25.9975 104.704 25.9862 104.571 25.9361C104.433 25.9044 104.313 25.8363 104.197 25.7661C103.963 25.6268 103.795 25.4285 103.653 25.2397C103.518 25.0455 103.421 24.8442 103.346 24.652C103.269 24.4605 103.221 24.2742 103.183 24.1028C103.107 23.7601 103.092 23.4698 103.091 23.2684C103.089 23.066 103.104 22.9512 103.104 22.9512Z" fill="#352C38"/>
<path d="M108.511 19.347C108.511 19.347 108.389 19.253 108.175 19.0888C107.962 18.932 107.664 18.7106 107.301 18.4922C106.941 18.27 106.518 18.0489 106.067 17.9014C105.842 17.8234 105.608 17.7801 105.374 17.7437C105.139 17.7144 104.9 17.7123 104.661 17.7293C104.422 17.7539 104.182 17.7931 103.944 17.8629C103.824 17.8942 103.706 17.931 103.589 17.9757C103.47 18.0125 103.355 18.0632 103.24 18.1126C103.124 18.1566 103.013 18.2111 102.902 18.2666C102.792 18.3211 102.681 18.3692 102.577 18.4302C102.365 18.5426 102.162 18.6533 101.977 18.7671C101.787 18.8721 101.616 18.9808 101.46 19.0738C101.302 19.1692 101.165 19.2526 101.053 19.3211C100.825 19.4608 100.681 19.5334 100.681 19.5334C100.681 19.5334 100.736 19.3862 100.858 19.1416C100.919 19.0189 100.992 18.8683 101.1 18.713C101.202 18.5528 101.315 18.3671 101.468 18.1873C101.542 18.0953 101.62 18.0002 101.704 17.9034C101.795 17.8118 101.889 17.7174 101.986 17.62C102.08 17.5191 102.197 17.436 102.309 17.3409C102.419 17.2438 102.544 17.1597 102.674 17.0759C102.802 16.9869 102.938 16.9072 103.085 16.8364L103.304 16.7249L103.54 16.6357C103.853 16.5093 104.201 16.4432 104.551 16.4026C104.904 16.3832 105.263 16.3955 105.604 16.4745C105.942 16.5522 106.265 16.6681 106.546 16.8258C107.113 17.1335 107.533 17.5454 107.823 17.929C108.116 18.3147 108.287 18.6745 108.386 18.9313C108.486 19.1889 108.511 19.347 108.511 19.347Z" fill="#352C38"/>
<path d="M111.432 19.6577C111.432 19.6577 111.407 19.208 111.625 18.6138C111.734 18.3177 111.901 17.9849 112.151 17.6595C112.28 17.4987 112.422 17.3352 112.6 17.19C112.774 17.0404 112.977 16.9066 113.212 16.8003C113.444 16.697 113.713 16.6224 113.991 16.6193C114.267 16.603 114.545 16.6721 114.776 16.7744C114.889 16.8309 115.001 16.8827 115.09 16.957C115.186 17.0244 115.271 17.0936 115.34 17.1716C115.491 17.3178 115.591 17.4772 115.676 17.6217C115.839 17.9167 115.906 18.1784 115.936 18.3665C115.968 18.5535 115.969 18.6636 115.969 18.6636C115.969 18.6636 115.866 18.6108 115.715 18.5126C115.562 18.4169 115.35 18.282 115.116 18.1535C115.06 18.1171 114.997 18.0932 114.936 18.0632C114.876 18.0312 114.815 18.004 114.752 17.9849C114.691 17.959 114.632 17.9375 114.571 17.927C114.511 17.9082 114.454 17.9017 114.398 17.8939C114.286 17.884 114.187 17.8864 114.084 17.9086C113.982 17.9293 113.871 17.958 113.753 18.0176C113.514 18.1164 113.247 18.3017 112.989 18.4881C112.732 18.6809 112.48 18.8823 112.253 19.0581C112.027 19.2353 111.824 19.3865 111.674 19.4915C111.527 19.5978 111.432 19.6577 111.432 19.6577Z" fill="#352C38"/>
<path d="M130.426 106L139.084 162.391H123.765L110.444 115.324L130.426 106Z" fill="#597A96"/>
<path d="M95.7922 110.218L93.0186 162.391H109.032L113.331 137.969L134.414 132.087L130.204 104.223L95.7922 110.218Z" fill="#6F96BD"/>
<path d="M112.583 119.243C118.945 118.805 126.479 118.062 131.884 114.22L130.204 104.223L95.792 110.218L95.5508 118.181C101.135 119.232 106.821 119.639 112.583 119.243Z" fill="#597A96"/>
<path d="M91.1306 45.6124C91.1306 45.6124 95.7928 50.7186 102.897 50.9407C110.002 51.1629 110.89 46.2785 110.89 46.2785C110.89 46.2785 122.435 41.3942 125.542 48.4985C128.65 55.6029 132.647 109.774 132.647 109.774C132.647 109.774 123.322 121.54 94.0167 112.66C94.0167 112.66 74.9237 51.6065 79.5859 49.1643C84.2481 46.7225 91.1306 45.6124 91.1306 45.6124Z" fill="#8D4DF4"/>
<path d="M106.185 77.8354C98.3873 73.0488 91.3268 67.5012 84.9799 60.9082C82.967 58.8173 80.9984 56.68 79.0186 54.5537C80.6648 69.9648 94.0167 112.66 94.0167 112.66C123.322 121.54 132.647 109.774 132.647 109.774C132.647 109.774 131.935 100.119 130.878 88.4272C122.252 86.1159 113.958 82.6066 106.185 77.8354Z" fill="#5C4B7D"/>
<path d="M80.0303 54.0486C80.0303 54.0486 80.0303 89.7926 81.8064 96.2309C83.5825 102.669 93.3511 121.318 93.3511 121.318L94.9051 127.979L98.8116 127.998L100.233 114.658L97.5694 113.77L92.4629 91.7905L91.3529 55.8243L80.0303 54.0486Z" fill="#965450"/>
<path d="M87.9795 80.6071C89.3741 80.819 90.7563 80.9089 92.1276 80.8987L91.3539 55.8249L80.0312 54.0488C80.0312 54.0488 80.0312 66.8034 80.4101 78.447C82.8676 79.4173 85.3861 80.2129 87.9795 80.6071Z" fill="#76413B"/>
<path d="M94.9775 127.979L98.8118 127.998L100.234 114.658L100.019 114.587C98.9083 119.227 96.8719 123.589 94.9775 127.979Z" fill="#76413B"/>
<path d="M91.1309 45.6123C91.1309 45.6123 78.9201 46.9445 78.0322 51.1627C77.144 55.381 77.8101 76.028 77.8101 76.028C77.8101 76.028 85.3584 80.0241 94.017 78.6923L91.1309 45.6123Z" fill="#8D4DF4"/>
<path d="M114.886 45.3902C114.886 45.3902 123.766 40.728 127.984 49.1645C132.203 57.6011 132.647 70.2558 132.647 70.2558L123.322 72.4759L114.886 45.3902Z" fill="#8D4DF4"/>
<path d="M120.303 62.784L123.321 72.476L132.646 70.256C132.646 70.256 132.344 61.6982 129.891 53.9656C126.726 56.9375 123.516 59.8628 120.303 62.784Z" fill="#5C4B7D"/>
<path d="M124.939 77.7875C124.838 78.2386 124.391 78.5227 123.94 78.4219L113.931 76.1848C113.48 76.084 113.196 75.6363 113.297 75.1852L118.136 53.5341C118.237 53.083 118.685 52.7989 119.136 52.8997L129.144 55.1368C129.595 55.2376 129.879 55.6853 129.779 56.1364L124.939 77.7875Z" fill="#1C181E"/>
<path d="M128.65 64.7056C128.65 64.7056 103.785 60.4874 121.989 65.5935C121.989 65.5935 103.34 62.4852 121.323 67.5917C121.323 67.5917 104.672 65.3717 121.323 70.0339C121.323 70.0339 107.781 69.3678 123.322 72.4761C123.322 72.4761 123.099 99.1174 132.646 100.672C142.193 102.226 135.754 76.9161 128.65 64.7056Z" fill="#965450"/>
<path d="M15.098 86.0349C15.098 86.0349 3.37983 110.278 4.04591 124.385C4.71165 138.492 14.8759 162.391 14.8759 162.391H27.7528L29.3558 131.55L31.3053 162.391H44.8483C44.8483 162.391 52.8896 131.103 52.0018 119.907C51.1135 108.711 41.7401 86.4826 41.7401 86.4826L15.098 86.0349Z" fill="#352C38"/>
<path d="M51.5705 116.7C49.9065 119.657 47.2691 122.18 44.645 124.101C40.099 127.429 34.6964 129.871 29.376 131.882L31.3054 162.391H44.8484C44.8484 162.391 52.8897 131.103 52.0018 119.907C51.9221 118.901 51.7732 117.825 51.5705 116.7Z" fill="#1C181E"/>
<path d="M44.2138 90.538C42.788 88.0434 41.74 86.4826 41.74 86.4826L15.0979 86.0349C15.0979 86.0349 13.5297 88.1544 11.5713 91.5301C26.9687 96.8329 38.7735 93.0824 44.2138 90.538Z" fill="#1C181E"/>
<path d="M14.4873 48.6801C14.4873 48.6801 28.7243 46.5153 38.2988 49.2627C38.2988 49.2627 41.7123 34.8591 33.3034 31.0296C24.8945 27.1997 16.7353 32.7781 16.7353 32.7781L14.4873 48.6801Z" fill="#E0C7A2"/>
<path d="M22.5629 44.6004C22.5629 44.6004 24.2279 56.9223 20.8979 57.5884C17.5675 58.2544 11.7397 54.924 8.40935 60.5855C5.07896 66.247 19.0662 70.4097 28.2244 69.5774C37.5242 68.7321 48.8554 67.1874 45.8749 59.5866C42.5445 51.0945 30.7885 63.7531 31.3882 51.7603C31.7214 45.0998 31.8876 40.9368 31.8876 40.9368L22.5629 44.6004Z" fill="#F19C7C"/>
<path d="M22.7669 54.2234C24.3904 54.3113 26.0244 54.162 27.5746 53.7484C29.1418 53.33 30.2631 52.7256 31.3963 51.5914C31.7237 45.0305 31.8872 40.9373 31.8872 40.9373L22.5625 44.6005C22.5625 44.6005 23.341 50.3669 22.7669 54.2234Z" fill="#E08565"/>
<path d="M25.3936 24.4523C25.3936 24.4523 14.1919 25.3923 16.2354 38.4395C18.4003 52.2602 31.7876 55.9463 36.0504 42.2694C40.0466 29.4477 31.7211 23.9528 25.3936 24.4523Z" fill="#F19C7C"/>
<path d="M16.0686 20.9554C16.0686 20.9554 25.4768 16.7092 26.4758 24.7853C27.271 31.2123 21.5635 31.4457 18.3997 33.6937C15.2359 35.9416 19.1489 41.1868 19.1489 41.1868C19.1489 41.1868 16.7344 40.7704 16.2349 38.4393C16.2349 38.4393 14.5699 46.8483 21.9795 50.2618C21.9795 50.2618 18.8157 50.9279 16.4012 47.9307C16.4012 47.9307 17.7333 50.595 21.3966 50.8447C21.3966 50.8447 17.8999 52.7595 14.6527 49.5957L16.0679 51.5939C16.0679 51.5939 11.1557 51.3442 9.74039 46.0991C9.74039 46.0991 9.82352 48.4302 7.65902 48.93C7.65902 48.93 9.07431 46.9317 7.49242 45.5996C5.91053 44.2674 3.24622 38.8557 8.1585 35.4422C13.0711 32.0286 9.90733 24.7018 16.0686 20.9554Z" fill="#FDDEC0"/>
<path d="M36.3803 20.9685C36.3803 20.9685 26.8331 17.0453 26.1098 25.1507C25.534 31.6009 31.2459 31.6401 34.4843 33.779C37.7227 35.9179 33.9906 41.2932 33.9906 41.2932C33.9906 41.2932 36.3895 40.7951 36.8092 38.448C36.8092 38.448 38.7598 46.7953 31.4704 50.4592C31.4704 50.4592 34.655 51.0173 36.966 47.9394C36.966 47.9394 35.7255 50.6473 32.0728 51.0217C32.0728 51.0217 35.6328 52.8165 38.77 49.5441L37.4235 51.5893C37.4235 51.5893 42.3242 51.1723 43.5603 45.8822C43.5603 45.8822 43.5566 48.215 45.7371 48.6405C45.7371 48.6405 44.2543 46.6917 45.7902 45.3064C47.3258 43.9211 49.8041 38.4218 44.7787 35.1776C39.7529 31.9331 42.6653 24.503 36.3803 20.9685Z" fill="#FDDEC0"/>
<path d="M14.1543 22.5373C14.1543 22.5373 15.71 20.6543 19.1562 19.4761C20.6866 18.9528 22.922 19.4754 25.2275 19.457C26.6295 19.4458 27.821 18.9207 29.5541 18.9729C31.8048 19.0407 33.5731 19.902 35.8844 20.7888L26.976 25.7011L14.1543 22.5373Z" fill="#FDDEC0"/>
<path d="M25.3104 35.6922C25.3104 35.6922 24.8076 35.4265 24.0529 35.0282C23.3085 34.6571 22.3269 34.1601 21.3341 33.9587C21.0871 33.8987 20.8414 33.8831 20.6009 33.8653C20.3631 33.8694 20.1263 33.8691 19.9059 33.9192C19.6817 33.956 19.4725 34.0279 19.2728 34.1066C19.0769 34.1931 18.8899 34.2878 18.7243 34.3955C18.636 34.4425 18.5665 34.5076 18.4902 34.5597C18.4166 34.6146 18.3379 34.6602 18.278 34.7181C18.1567 34.8312 18.0296 34.9178 17.9437 35.0064C17.7655 35.1781 17.6504 35.2755 17.6504 35.2755C17.6504 35.2755 17.6892 35.1358 17.7805 34.8932C17.8238 34.7706 17.8994 34.6333 17.9856 34.4721C18.0776 34.3158 18.1901 34.1376 18.3437 33.9662C18.4926 33.7894 18.6773 33.6129 18.9001 33.4531C19.126 33.3001 19.3849 33.1546 19.6755 33.0633C19.9631 32.958 20.2776 32.9151 20.5941 32.896C20.9089 32.8906 21.2298 32.9134 21.5348 32.9802C21.8417 33.0432 22.1358 33.1376 22.4131 33.2521C22.6904 33.3655 22.9504 33.4998 23.1902 33.6439C23.6717 33.9301 24.0716 34.2585 24.3868 34.5645C24.7057 34.8657 24.9364 35.1508 25.0883 35.3563C25.2399 35.5621 25.3104 35.6922 25.3104 35.6922Z" fill="#352C38"/>
<path d="M27.5576 35.8588C27.5576 35.8588 27.7028 35.2687 28.1804 34.5045C28.4148 34.1205 28.7324 33.6946 29.1484 33.2943C29.5603 32.8929 30.0761 32.5158 30.6815 32.2712C30.9848 32.1546 31.3054 32.0609 31.6348 32.0344C31.9612 31.9904 32.2907 32.0262 32.5963 32.0804C32.9005 32.1523 33.1813 32.2572 33.4239 32.3901C33.5414 32.4633 33.6624 32.5216 33.7632 32.601C33.8627 32.6797 33.9588 32.7556 34.0511 32.8285C34.2191 32.99 34.3751 33.1321 34.4841 33.2837C34.6 33.4282 34.6984 33.5532 34.7635 33.6691C34.9008 33.8939 34.9673 34.0268 34.9673 34.0268C34.9673 34.0268 34.834 33.9505 34.6228 33.8094C34.5213 33.7341 34.3795 33.6667 34.2351 33.574C34.0916 33.4786 33.9094 33.4077 33.7332 33.3066C33.5438 33.2279 33.3438 33.144 33.1302 33.0827C32.9176 33.0176 32.6917 32.9808 32.4627 32.9563C32.2317 32.9502 31.9973 32.9488 31.7602 32.9952C31.5238 33.0323 31.2856 33.1042 31.0519 33.1986C30.8154 33.2861 30.5885 33.4132 30.3633 33.5382C30.1432 33.6752 29.9242 33.8132 29.7204 33.9672C29.5143 34.1168 29.3197 34.2735 29.1354 34.4254C28.9538 34.5805 28.7763 34.7259 28.6193 34.8697C28.3041 35.1552 28.039 35.4026 27.8533 35.5794C27.6653 35.7572 27.5576 35.8588 27.5576 35.8588Z" fill="#352C38"/>
<path d="M19.9824 38.4397C19.9824 38.4397 20.0557 38.5112 20.1834 38.6366C20.3109 38.7596 20.4914 38.933 20.7122 39.1248C20.824 39.2192 20.9466 39.3163 21.0747 39.4158C21.2049 39.5132 21.348 39.6018 21.4921 39.6897C21.5647 39.7333 21.6427 39.7643 21.718 39.8035C21.795 39.8325 21.873 39.8614 21.9517 39.8911C22.1101 39.9306 22.2679 39.9633 22.4246 39.9548L22.5418 39.9473C22.553 39.9473 22.6001 39.9436 22.5817 39.947L22.6549 39.9306C22.7438 39.9057 22.8685 39.8952 22.9282 39.8652C23.0672 39.8185 23.2297 39.763 23.3636 39.6758C23.4334 39.6359 23.4975 39.5902 23.5588 39.5412C23.6246 39.4972 23.6811 39.4444 23.7356 39.3909C23.845 39.2846 23.9394 39.1691 24.0239 39.057C24.1871 38.8284 24.2985 38.6073 24.371 38.4482C24.4439 38.2887 24.4784 38.1899 24.4784 38.1899C24.4784 38.1899 24.5005 38.2922 24.5005 38.4758C24.4995 38.5671 24.4944 38.6795 24.4736 38.807C24.4528 38.9344 24.4211 39.0792 24.3635 39.2318C24.306 39.3838 24.2327 39.55 24.1193 39.7064C24.0113 39.8655 23.875 40.027 23.7005 40.1551C23.5305 40.2887 23.3397 40.4035 23.1067 40.4856C22.9854 40.5367 22.9084 40.5446 22.8055 40.5732L22.7326 40.5909C22.6655 40.6049 22.6621 40.5997 22.6236 40.6052L22.4413 40.6202C22.3193 40.6318 22.1997 40.6028 22.0798 40.5933C21.9619 40.5742 21.8515 40.5316 21.7398 40.5003C21.5262 40.4151 21.3367 40.2999 21.1698 40.1776C20.8379 39.9275 20.5994 39.6369 20.4257 39.3756C20.0768 38.8502 19.9824 38.4397 19.9824 38.4397Z" fill="#352C38"/>
<path d="M33.1369 38.4395C33.1369 38.4395 33.0425 38.8501 32.6936 39.3751C32.5202 39.6364 32.2814 39.927 31.9495 40.1771C31.7826 40.2998 31.5928 40.4146 31.3795 40.4998C31.2678 40.5311 31.1574 40.5737 31.0395 40.5928C30.9196 40.6023 30.8 40.6313 30.678 40.6197L30.4957 40.6047C30.4572 40.5996 30.4535 40.6044 30.3867 40.5904L30.3138 40.5727C30.2109 40.5441 30.1336 40.5362 30.0126 40.4851C29.7796 40.403 29.5884 40.2882 29.4188 40.1546C29.2443 40.0265 29.1081 39.865 29 39.7059C28.8866 39.5495 28.8133 39.3833 28.7558 39.2313C28.6985 39.0787 28.6668 38.9339 28.6461 38.8065C28.6253 38.6787 28.6205 38.5666 28.6191 38.4753C28.6191 38.2917 28.6413 38.1895 28.6413 38.1895C28.6413 38.1895 28.6757 38.2883 28.7486 38.4477C28.8212 38.6068 28.9326 38.8279 29.0958 39.0565C29.1803 39.1686 29.2747 39.2841 29.384 39.3904C29.4385 39.4439 29.4951 39.4971 29.5608 39.5407C29.6222 39.5894 29.6862 39.6354 29.7561 39.6753C29.89 39.7625 30.0525 39.818 30.1915 39.8647C30.2511 39.8947 30.3758 39.9056 30.4647 39.9301L30.538 39.9465C30.5199 39.9431 30.5669 39.9468 30.5778 39.9468L30.6951 39.9543C30.8521 39.9628 31.0095 39.9301 31.168 39.8906C31.2467 39.8613 31.3247 39.832 31.4017 39.803C31.477 39.7638 31.555 39.7328 31.6276 39.6892C31.7717 39.6017 31.9151 39.5127 32.0449 39.4153C32.173 39.3158 32.2957 39.2187 32.4074 39.1243C32.6282 38.9329 32.8088 38.7591 32.9362 38.6361C33.0636 38.5111 33.1369 38.4395 33.1369 38.4395Z" fill="#352C38"/>
<path d="M27.3913 37.3574L27.6598 38.5376C27.7105 38.7301 27.7504 38.9219 27.8039 39.1103C27.8264 39.2054 27.8608 39.297 27.8836 39.3907C27.9081 39.4844 27.9347 39.5771 27.9671 39.6671C28.0253 39.8507 28.0952 40.0251 28.1623 40.2003L28.2775 40.4517C28.3122 40.5382 28.3626 40.6115 28.4062 40.6898C28.4495 40.7689 28.4942 40.8462 28.5504 40.9103C28.6049 40.975 28.6458 41.0595 28.7108 41.1096C28.7735 41.1624 28.8243 41.2343 28.89 41.2823L29.0921 41.421L29.5933 41.7651L29.0846 41.9545C28.9156 42.0176 28.7415 42.0687 28.5691 42.1239C28.3974 42.1804 28.2223 42.2298 28.0468 42.2775C27.6966 42.3746 27.3415 42.4608 26.9746 42.5184C27.2737 42.2983 27.5848 42.1072 27.9006 41.9266C28.058 41.8356 28.2165 41.7464 28.3776 41.6643C28.5381 41.5808 28.6972 41.4932 28.8611 41.4176L28.8536 41.9511L28.5361 41.7838C28.4345 41.7218 28.3494 41.6411 28.2587 41.5651C28.1626 41.4919 28.1044 41.3948 28.0264 41.3089C27.9497 41.221 27.8914 41.126 27.8359 41.0295C27.7783 40.9341 27.719 40.8381 27.6795 40.7372C27.6373 40.637 27.5872 40.5389 27.5521 40.437C27.4826 40.234 27.4189 40.0296 27.3807 39.8224C27.3344 39.6163 27.3013 39.4102 27.2833 39.2027C27.2649 38.9955 27.2496 38.7894 27.2533 38.5826C27.254 38.1717 27.2932 37.7595 27.3913 37.3574Z" fill="#C4734E"/>
<path d="M23.1465 43.6848C23.1465 43.6848 23.218 43.757 23.3475 43.8698C23.4763 43.9833 23.6599 44.1407 23.8885 44.308C23.9996 44.3955 24.1311 44.4739 24.2603 44.5655C24.3959 44.6483 24.5396 44.7328 24.6892 44.8132C24.8405 44.8926 24.9986 44.9669 25.1645 45.0292C25.3253 45.1038 25.4991 45.1492 25.6694 45.204C25.8391 45.2613 26.0193 45.2803 26.1903 45.3274C26.3675 45.3512 26.5419 45.3744 26.7106 45.3972C26.882 45.3972 27.0489 45.4078 27.2094 45.417C27.3695 45.421 27.5215 45.4044 27.6646 45.4054C27.807 45.4003 27.9412 45.404 28.0571 45.3866C28.1736 45.373 28.2782 45.3672 28.3644 45.3611C28.5378 45.3505 28.641 45.3498 28.641 45.3498C28.641 45.3498 28.5572 45.4033 28.4029 45.4878C28.3255 45.529 28.2312 45.5812 28.1197 45.6336C28.0104 45.6939 27.8796 45.7389 27.7334 45.7815C27.5876 45.8241 27.4305 45.8858 27.2564 45.912C27.0823 45.9376 26.8966 45.9679 26.7031 45.9839C26.5092 45.9784 26.3055 45.9856 26.1004 45.9675C25.8977 45.9311 25.6871 45.9069 25.4858 45.8445C25.2861 45.7774 25.0827 45.7192 24.9004 45.6187C24.7096 45.5365 24.5424 45.419 24.3798 45.3107C24.2166 45.2033 24.0787 45.0718 23.9488 44.9519C23.8228 44.8265 23.7097 44.7035 23.6194 44.5785C23.4286 44.3379 23.3121 44.1087 23.2402 43.9472C23.169 43.7843 23.1465 43.6848 23.1465 43.6848Z" fill="#C4734E"/>
<path d="M18.8722 57.3943C18.8722 57.3943 19.3161 62.9447 27.0869 62.9447C34.8577 62.9447 33.9695 56.9503 33.9695 56.9503C33.9695 56.9503 43.7381 52.2878 46.8464 58.9486C49.9546 65.609 43.9603 88.0331 43.9603 88.0331C43.9603 88.0331 27.9748 93.3614 12.6557 87.5892C12.6557 87.5892 5.10702 65.6093 7.10525 61.3911C9.10348 57.1725 11.1017 55.396 18.8722 57.3943Z" fill="#6F96BD"/>
<path d="M24.1415 73.9604C17.5475 72.8562 12.1289 69.4921 6.91309 65.7109C7.81493 73.4923 12.6557 87.5889 12.6557 87.5889C27.9748 93.3615 43.9603 88.0329 43.9603 88.0329C43.9603 88.0329 46.1738 79.752 47.2133 71.7598C39.6963 74.0398 31.8629 75.2534 24.1415 73.9604Z" fill="#5C7E9B"/>
<path d="M2.66448 75.9885C2.66448 75.9885 -3.16361 98.9673 2.66448 103.297C8.49257 107.626 11.6564 78.8191 11.6564 78.8191L2.66448 75.9885Z" fill="#E08565"/>
<path d="M52.1862 74.823C52.1862 74.823 58.0143 97.8018 52.1862 102.131C46.3581 106.46 43.1943 77.6536 43.1943 77.6536L52.1862 74.823Z" fill="#E08565"/>
<path d="M13.3216 79.1523C13.3216 79.1523 6.32795 78.1534 0.166992 75.1559C0.166992 75.1559 6.82742 58.5046 8.99226 57.3387C11.1571 56.1732 18.872 57.3943 18.872 57.3943L13.3216 79.1523Z" fill="#6F96BD"/>
<path d="M41.5299 77.9865C41.5299 77.9865 48.5235 76.9875 54.6845 73.99C54.6845 73.99 48.0241 57.3387 45.8592 56.1732C43.6944 55.0076 35.9795 56.2287 35.9795 56.2287L41.5299 77.9865Z" fill="#6F96BD"/>
<path d="M33.1513 87.8146C33.1244 88.2763 32.7282 88.6286 32.2669 88.6017L22.0287 88.0034C21.5671 87.9765 21.2148 87.5802 21.2417 87.1186L22.536 64.9711C22.5629 64.5094 22.9592 64.1571 23.4205 64.1841L33.6587 64.7823C34.1203 64.8093 34.4726 65.2055 34.4457 65.6668L33.1513 87.8146Z" fill="#1C181E"/>
<path d="M0.000344541 95.9702C0.000344541 95.9702 16.1521 75.9886 18.1503 74.6565C20.1486 73.3243 40.2968 74.6565 26.4761 75.4891C26.4761 75.4891 41.1295 76.8213 26.6427 76.9879C26.6427 76.9879 39.9639 78.8195 24.9777 78.4867C24.9777 78.4867 35.9675 80.6515 22.48 79.6522C22.48 79.6522 11.9839 104.217 6.82772 104.463C-0.166259 104.796 0.000344541 95.9702 0.000344541 95.9702Z" fill="#F19C7C"/>
<path d="M54.8515 94.8047C54.8515 94.8047 38.6998 74.8231 36.7015 73.4909C34.7033 72.1588 14.5551 73.4909 28.3757 74.3236C28.3757 74.3236 13.7224 75.6558 28.2091 75.8224C28.2091 75.8224 14.8879 77.654 29.8741 77.3211C29.8741 77.3211 18.8844 79.486 32.3718 78.4867C32.3718 78.4867 42.8679 103.052 48.0242 103.297C55.0181 103.63 54.8515 94.8047 54.8515 94.8047Z" fill="#F19C7C"/>
</svg>
