<svg width="224" height="164" viewBox="0 0 224 164" fill="none" xmlns="http://www.w3.org/2000/svg">
<path d="M6.62207 162.575C8.23561 156.84 24.971 97.178 24.9141 96.7263C24.8573 96.2746 26.2845 88.2661 29.6123 81.5874C32.9402 74.9087 37.5697 67.4706 38.1489 66.5595C38.7274 65.649 39.4512 64.131 39.8851 61.7018C40.319 59.2732 44.9492 52.5939 46.3955 50.7729C47.8425 48.9513 52.1828 39.3882 52.4721 37.8701C52.7613 36.352 54.4976 35.1381 56.8124 34.6822C59.1271 34.227 62.3103 33.7717 62.3103 33.7717C62.3103 33.7717 63.3234 34.9863 63.3234 36.352C63.3234 37.7178 58.1147 70.3539 57.8254 75.8186C57.5361 81.2833 58.2593 84.3189 55.9445 89.9354C53.6297 95.5519 46.8295 99.0433 43.5016 101.32C40.1738 103.597 40.4316 104.071 40.4316 104.071C40.4316 104.071 42.3091 158.707 42.2652 163" fill="white"/>
<path d="M6.62207 162.575C8.23561 156.84 24.971 97.178 24.9141 96.7263C24.8573 96.2746 26.2845 88.2661 29.6123 81.5874C32.9402 74.9087 37.5697 67.4706 38.1489 66.5595C38.7274 65.649 39.4512 64.131 39.8851 61.7018C40.319 59.2732 44.9491 52.5939 46.3955 50.7729C47.8425 48.9513 52.1828 39.3882 52.4721 37.8701C52.7613 36.352 54.4976 35.1381 56.8124 34.6822C59.1271 34.227 62.3103 33.7717 62.3103 33.7717C62.3103 33.7717 63.3234 34.9863 63.3234 36.352C63.3234 37.7178 58.1147 70.3539 57.8254 75.8186C57.5361 81.2833 58.2593 84.3189 55.9445 89.9354C53.6297 95.5519 46.8295 99.0433 43.5016 101.32C40.1738 103.597 40.4316 104.071 40.4316 104.071C40.4316 104.071 42.3091 158.707 42.2652 163" stroke="#263238" stroke-miterlimit="10" stroke-linecap="round" stroke-linejoin="round"/>
<path d="M56.523 70.9616C56.523 70.9616 54.9314 70.8098 53.3398 67.7737" stroke="#263238" stroke-miterlimit="10" stroke-linecap="round" stroke-linejoin="round"/>
<path d="M54.7871 51.3801C54.7871 51.3801 59.272 52.2906 59.8512 56.2373" stroke="#263238" stroke-miterlimit="10" stroke-linecap="round" stroke-linejoin="round"/>
<path d="M56.2334 39.085C56.2334 39.085 59.4166 41.3618 59.7059 45.7637" stroke="#263238" stroke-miterlimit="10" stroke-linecap="round" stroke-linejoin="round"/>
<path d="M202.125 70.974L201.766 7.9279C201.766 4.1017 198.81 1 195.163 1H63.6635C60.0166 1 57.0602 4.1017 57.0602 7.9279L56.7012 70.974C56.7012 74.8386 59.6874 77.9715 63.3709 77.9715H195.455C199.139 77.9715 202.125 74.8386 202.125 70.974Z" fill="#263238" stroke="#333333" stroke-width="0.8687" stroke-miterlimit="10" stroke-linecap="round" stroke-linejoin="round"/>
<path d="M194.731 74.5468L194.446 4.39038H64.3801L64.0947 74.5468H194.731Z" fill="white" stroke="#333333" stroke-width="0.6515" stroke-miterlimit="10" stroke-linecap="round" stroke-linejoin="round"/>
<path d="M194.446 4.39038H64.3803L64.3662 7.89536H76.8609L80.0598 12.6899H194.48L194.446 4.39038Z" fill="#8D4DF4" stroke="#263238" stroke-miterlimit="10" stroke-linecap="round" stroke-linejoin="round"/>
<path opacity="0.5" d="M194.446 18.3496L103.022 74.5469H194.731L194.446 18.3496Z" fill="#8D4DF4"/>
<path d="M199.089 39.4542C199.096 38.8702 198.651 38.3907 198.094 38.3832C197.538 38.3757 197.081 38.843 197.074 39.427C197.066 40.0109 197.512 40.4905 198.068 40.498C198.625 40.5056 199.082 40.0382 199.089 39.4542Z" fill="white"/>
<path d="M74.3943 30.0248C77.3692 30.0248 79.7809 27.4946 79.7809 24.3735C79.7809 21.2523 77.3692 18.7222 74.3943 18.7222C71.4194 18.7222 69.0078 21.2523 69.0078 24.3735C69.0078 27.4946 71.4194 30.0248 74.3943 30.0248Z" fill="#8D4DF4" stroke="#263238" stroke-miterlimit="10" stroke-linecap="round" stroke-linejoin="round"/>
<path d="M74.3943 53.2582C77.3692 53.2582 79.7809 50.728 79.7809 47.6069C79.7809 44.4857 77.3692 41.9556 74.3943 41.9556C71.4194 41.9556 69.0078 44.4857 69.0078 47.6069C69.0078 50.728 71.4194 53.2582 74.3943 53.2582Z" fill="white" stroke="#263238" stroke-miterlimit="10" stroke-linecap="round" stroke-linejoin="round"/>
<path d="M111.203 30.0248C114.178 30.0248 116.589 27.4946 116.589 24.3735C116.589 21.2523 114.178 18.7222 111.203 18.7222C108.228 18.7222 105.816 21.2523 105.816 24.3735C105.816 27.4946 108.228 30.0248 111.203 30.0248Z" fill="white" stroke="#263238" stroke-miterlimit="10" stroke-linecap="round" stroke-linejoin="round"/>
<path d="M111.203 53.2582C114.178 53.2582 116.589 50.728 116.589 47.6069C116.589 44.4857 114.178 41.9556 111.203 41.9556C108.228 41.9556 105.816 44.4857 105.816 47.6069C105.816 50.728 108.228 53.2582 111.203 53.2582Z" fill="#8D4DF4" stroke="#263238" stroke-miterlimit="10" stroke-linecap="round" stroke-linejoin="round"/>
<path d="M148.012 30.0248C150.986 30.0248 153.398 27.4946 153.398 24.3735C153.398 21.2523 150.986 18.7222 148.012 18.7222C145.037 18.7222 142.625 21.2523 142.625 24.3735C142.625 27.4946 145.037 30.0248 148.012 30.0248Z" fill="#8D4DF4" stroke="#263238" stroke-miterlimit="10" stroke-linecap="round" stroke-linejoin="round"/>
<path d="M148.012 53.2582C150.986 53.2582 153.398 50.728 153.398 47.6069C153.398 44.4857 150.986 41.9556 148.012 41.9556C145.037 41.9556 142.625 44.4857 142.625 47.6069C142.625 50.728 145.037 53.2582 148.012 53.2582Z" fill="#8D4DF4" stroke="#263238" stroke-width="2" stroke-miterlimit="10" stroke-linecap="round" stroke-linejoin="round"/>
<path d="M184.821 30.0248C187.796 30.0248 190.208 27.4946 190.208 24.3735C190.208 21.2523 187.796 18.7222 184.821 18.7222C181.846 18.7222 179.435 21.2523 179.435 24.3735C179.435 27.4946 181.846 30.0248 184.821 30.0248Z" fill="#8D4DF4" stroke="#263238" stroke-miterlimit="10" stroke-linecap="round" stroke-linejoin="round"/>
<path d="M184.821 53.2582C187.796 53.2582 190.208 50.728 190.208 47.6069C190.208 44.4857 187.796 41.9556 184.821 41.9556C181.846 41.9556 179.435 44.4857 179.435 47.6069C179.435 50.728 181.846 53.2582 184.821 53.2582Z" fill="white" stroke="#263238" stroke-miterlimit="10" stroke-linecap="round" stroke-linejoin="round"/>
<path d="M83.7549 32.0247H101.4" stroke="#263238" stroke-miterlimit="10" stroke-linecap="round" stroke-linejoin="round"/>
<path d="M83.7549 36.2966H101.4" stroke="#263238" stroke-miterlimit="10" stroke-linecap="round" stroke-linejoin="round"/>
<path d="M83.7549 40.5686H101.4" stroke="#263238" stroke-miterlimit="10" stroke-linecap="round" stroke-linejoin="round"/>
<path d="M120.062 32.0247H137.706" stroke="#263238" stroke-miterlimit="10" stroke-linecap="round" stroke-linejoin="round"/>
<path d="M120.062 36.2966H137.706" stroke="#263238" stroke-miterlimit="10" stroke-linecap="round" stroke-linejoin="round"/>
<path d="M120.062 40.5686H137.706" stroke="#263238" stroke-miterlimit="10" stroke-linecap="round" stroke-linejoin="round"/>
<path d="M158.743 32.0247H176.387" stroke="#263238" stroke-miterlimit="10" stroke-linecap="round" stroke-linejoin="round"/>
<path d="M158.743 36.2966H176.387" stroke="#263238" stroke-miterlimit="10" stroke-linecap="round" stroke-linejoin="round"/>
<path d="M158.743 40.5686H176.387" stroke="#263238" stroke-miterlimit="10" stroke-linecap="round" stroke-linejoin="round"/>
<path d="M83.7549 56.1992H101.4" stroke="#263238" stroke-miterlimit="10" stroke-linecap="round" stroke-linejoin="round"/>
<path d="M83.7549 60.4714H101.4" stroke="#263238" stroke-miterlimit="10" stroke-linecap="round" stroke-linejoin="round"/>
<path d="M83.7549 64.7434H101.4" stroke="#263238" stroke-miterlimit="10" stroke-linecap="round" stroke-linejoin="round"/>
<path d="M120.062 56.1992H137.706" stroke="#263238" stroke-miterlimit="10" stroke-linecap="round" stroke-linejoin="round"/>
<path d="M120.062 60.4714H137.706" stroke="#263238" stroke-miterlimit="10" stroke-linecap="round" stroke-linejoin="round"/>
<path d="M120.062 64.7434H137.706" stroke="#263238" stroke-miterlimit="10" stroke-linecap="round" stroke-linejoin="round"/>
<path d="M158.743 56.1992H176.387" stroke="#263238" stroke-miterlimit="10" stroke-linecap="round" stroke-linejoin="round"/>
<path d="M158.743 60.4714H176.387" stroke="#263238" stroke-miterlimit="10" stroke-linecap="round" stroke-linejoin="round"/>
<path d="M158.743 64.7434H176.387" stroke="#263238" stroke-miterlimit="10" stroke-linecap="round" stroke-linejoin="round"/>
<path d="M137.392 47.8992H140.732" stroke="#263238" stroke-miterlimit="10" stroke-linecap="round" stroke-linejoin="round"/>
<path d="M148.368 40.8893V36.5081" stroke="#263238" stroke-miterlimit="10" stroke-linecap="round" stroke-linejoin="round"/>
<path d="M140.972 41.3901L143.119 43.1426" stroke="#263238" stroke-miterlimit="10" stroke-linecap="round" stroke-linejoin="round"/>
<path d="M143.597 52.4058L140.972 53.9079" stroke="#263238" stroke-miterlimit="10" stroke-linecap="round" stroke-linejoin="round"/>
<path d="M159.584 47.8992H156.243" stroke="#263238" stroke-miterlimit="10" stroke-linecap="round" stroke-linejoin="round"/>
<path d="M156.004 41.3901L153.856 43.1426" stroke="#263238" stroke-miterlimit="10" stroke-linecap="round" stroke-linejoin="round"/>
<path d="M145.766 59.5032L148.581 70.0541" stroke="#263238" stroke-miterlimit="10" stroke-linecap="round" stroke-linejoin="round"/>
<path d="M142.95 58.2371L144.559 63.7236" stroke="#263238" stroke-miterlimit="10" stroke-linecap="round" stroke-linejoin="round"/>
<path d="M212.302 158.671C212.302 158.671 198.935 132.807 197.033 128.27C195.131 123.733 193.696 116.593 193.231 114.632C192.767 112.67 192.341 110.872 193.046 107.565C193.751 104.258 193.336 94.8215 193.651 92.6569C193.965 90.4922 192.689 83.7102 191.955 79.9105C191.22 76.1109 189.589 73.4125 187.37 73.1232C185.152 72.8338 183.903 74.5474 183.903 74.5474C183.903 74.5474 182.98 66.4586 182.087 64.7823C181.194 63.106 178.273 63.3469 176.715 63.7531C175.158 64.1594 174.411 69.3861 174.411 69.3861C174.411 69.3861 173.055 64.3601 173.019 62.1134C172.983 59.8667 170.377 57.943 168.352 58.4708C166.327 58.9987 165.235 59.9771 164.684 64.6329C164.133 69.2887 165.174 76.4788 165.174 76.4788L164.122 76.9264C164.122 76.9264 160.326 62.992 159.124 59.314C157.922 55.636 156.76 51.4272 155.946 48.6892C155.132 45.9513 153.931 41.5789 150.621 42.2685C147.31 42.9582 148.118 50.5563 148.118 50.5563C148.118 50.5563 153.303 73.8465 153.573 75.6846C153.843 77.5233 154.691 83.8962 154.532 86.0201C154.373 88.144 154.366 93.699 154.366 93.699L149.43 87.524C149.43 87.524 148.81 85.6032 147.14 82.7418C145.469 79.8798 141.697 77.2192 139.243 78.0329C136.789 78.8459 138.732 81.4635 139.742 82.9349C140.753 84.4063 141.565 88.5337 141.562 90.6168C141.559 92.7 143.231 94.1732 145.289 97.9746C147.347 101.777 157.569 114.903 159.123 117.275C160.677 119.646 163.361 121.203 163.361 121.203C163.361 121.203 169.272 126.603 172.027 133.347C174.782 140.091 183.247 159.455 183.247 159.455" fill="white"/>
<path d="M212.302 158.671C212.302 158.671 198.935 132.807 197.033 128.27C195.131 123.733 193.696 116.593 193.231 114.632C192.767 112.67 192.341 110.872 193.046 107.565C193.751 104.258 193.336 94.8215 193.651 92.6569C193.965 90.4922 192.689 83.7102 191.955 79.9105C191.22 76.1109 189.589 73.4125 187.37 73.1232C185.152 72.8338 183.903 74.5474 183.903 74.5474C183.903 74.5474 182.98 66.4586 182.087 64.7823C181.194 63.106 178.273 63.3469 176.715 63.7531C175.158 64.1594 174.411 69.3861 174.411 69.3861C174.411 69.3861 173.055 64.3601 173.019 62.1134C172.983 59.8667 170.377 57.943 168.352 58.4708C166.327 58.9987 165.235 59.9771 164.684 64.6329C164.133 69.2887 165.174 76.4788 165.174 76.4788L164.122 76.9264C164.122 76.9264 160.326 62.992 159.124 59.314C157.922 55.636 156.76 51.4272 155.946 48.6892C155.132 45.9513 153.931 41.5789 150.621 42.2685C147.31 42.9582 148.118 50.5563 148.118 50.5563C148.118 50.5563 153.303 73.8465 153.573 75.6846C153.843 77.5233 154.691 83.8962 154.532 86.0201C154.373 88.144 154.366 93.699 154.366 93.699L149.43 87.524C149.43 87.524 148.81 85.6032 147.14 82.7418C145.469 79.8798 141.697 77.2192 139.243 78.0329C136.789 78.8459 138.732 81.4635 139.742 82.9349C140.753 84.4063 141.565 88.5337 141.562 90.6168C141.559 92.7 143.231 94.1732 145.289 97.9746C147.347 101.777 157.569 114.903 159.123 117.275C160.677 119.646 163.361 121.203 163.361 121.203C163.361 121.203 169.272 126.603 172.027 133.347C174.782 140.091 183.247 159.455 183.247 159.455" stroke="#263238" stroke-miterlimit="10" stroke-linecap="round" stroke-linejoin="round"/>
<path d="M148.868 43.9421C148.868 43.9421 149.483 47.9325 149.601 48.4344C149.867 49.561 154.313 49.0266 154.663 48.158C154.976 47.3822 154.744 45.7076 154.744 45.7076" stroke="#263238" stroke-miterlimit="10" stroke-linecap="round" stroke-linejoin="round"/>
<path d="M141.261 83.0614C141.261 83.0614 142.587 81.6744 141.538 80.0394C140.489 78.4039 139.906 78.0354 139.906 78.0354" stroke="#263238" stroke-miterlimit="10" stroke-linecap="round" stroke-linejoin="round"/>
<path d="M154.014 67.0687C154.014 67.0687 155.998 67.7661 157.871 65.1958" stroke="#263238" stroke-width="0.75" stroke-miterlimit="10" stroke-linecap="round" stroke-linejoin="round"/>
<path d="M154.25 65.2719C154.25 65.2719 156.9 63.1928 158.925 63.3593" stroke="#263238" stroke-width="0.75" stroke-miterlimit="10" stroke-linecap="round" stroke-linejoin="round"/>
<path d="M151.501 54.3619C151.501 54.3619 153.489 52.2817 155.085 52.7334" stroke="#263238" stroke-width="0.75" stroke-miterlimit="10" stroke-linecap="round" stroke-linejoin="round"/>
<path d="M153.371 53.8748C153.371 53.8748 154.422 54.1216 155.824 53.7561" stroke="#263238" stroke-width="0.75" stroke-miterlimit="10" stroke-linecap="round" stroke-linejoin="round"/>
<path d="M174.411 69.387L175.453 75.8832" stroke="#263238" stroke-miterlimit="10" stroke-linecap="round" stroke-linejoin="round"/>
<path d="M183.904 74.5481L185.024 81.3709" stroke="#263238" stroke-miterlimit="10" stroke-linecap="round" stroke-linejoin="round"/>
<path d="M154.367 93.7009C154.367 93.7009 154.087 98.8061 154.552 100.768" stroke="#263238" stroke-miterlimit="10" stroke-linecap="round" stroke-linejoin="round"/>
<path d="M175.463 79.3445C175.463 79.3445 176.615 82.5501 176.335 84.6858" stroke="#263238" stroke-width="0.75" stroke-miterlimit="10" stroke-linecap="round" stroke-linejoin="round"/>
<path d="M184.897 82.6599C184.897 82.6599 185.682 84.3114 185.215 87.321" stroke="#263238" stroke-width="0.75" stroke-miterlimit="10" stroke-linecap="round" stroke-linejoin="round"/>
<path opacity="0.7" d="M192.066 152.518C194.826 149.859 195.515 128.395 195.163 120.405C195.16 120.339 195.158 120.264 195.155 120.196C194.167 117.526 193.403 115.358 193.232 114.632C192.767 112.671 192.341 110.873 193.047 107.566C193.752 104.258 193.336 94.8223 193.651 92.6576C193.838 91.3716 193.463 88.4547 192.973 85.5024C190.974 85.3223 187.303 87.2177 187.303 87.2177C187.303 87.2177 184.408 82.7999 182.523 82.6452C180.638 82.4905 177.369 85.6052 177.369 85.6052C177.369 85.6052 175.493 78.9825 171.648 79.6615C167.803 80.3406 166.716 79.6539 165.193 79.7277C163.67 79.8015 162.442 75.9186 160.924 72.1119C159.407 68.3052 157.235 54.0479 155.949 51.1032C155.949 51.1032 153.926 45.1649 151.312 47.1394C148.699 49.114 151.156 55.5854 152.383 59.4677C153.611 63.35 154.266 70.7143 155.264 74.234C156.374 78.1464 155.845 83.9625 156.854 88.225C157.864 92.4876 160.532 93.8734 159.074 99.4261C157.616 104.979 154.427 103.224 150.878 99.9463C147.328 96.6692 145.571 89.1639 143.567 89.8913C142.786 90.1748 142.077 90.3318 141.566 90.7026C141.609 92.7415 143.26 94.2265 145.29 97.9765C147.348 101.779 157.57 114.905 159.123 117.277C160.677 119.648 163.362 121.205 163.362 121.205C163.362 121.205 169.272 126.605 172.027 133.349C172.522 134.56 173.309 136.352 174.267 138.473C175.418 139.421 173.009 134.955 173.595 135.675C177.505 140.473 189.307 155.177 192.066 152.518Z" fill="#8D4DF4"/>
<path d="M51.1698 73.39C51.1698 73.39 55.944 72.4795 58.5486 69.1399C61.1527 65.8002 67.3744 61.5501 69.3999 60.7913C71.4254 60.0326 74.6086 59.8808 75.7657 60.9431C76.9234 62.0053 77.5019 64.5862 75.7657 67.6218C74.0295 70.658 66.9399 73.5418 65.493 74.9081C64.046 76.2744 62.7443 77.1849 61.008 81.2833C59.2718 85.3817 56.5231 89.1766 53.7738 91.757C51.0246 94.3373 45.9611 98.7398 43.3564 100.409" fill="white"/>
<path d="M51.1698 73.39C51.1698 73.39 55.944 72.4795 58.5486 69.1399C61.1527 65.8002 67.3744 61.5501 69.3999 60.7913C71.4254 60.0326 74.6086 59.8808 75.7657 60.9431C76.9234 62.0053 77.5019 64.5862 75.7657 67.6218C74.0295 70.658 66.9399 73.5418 65.493 74.9081C64.046 76.2744 62.7443 77.1849 61.008 81.2833C59.2718 85.3817 56.5231 89.1766 53.7738 91.757C51.0246 94.3373 45.9611 98.7398 43.3564 100.409" stroke="#263238" stroke-miterlimit="10" stroke-linecap="round" stroke-linejoin="round"/>
<path d="M75.9103 66.408C75.0425 67.7743 72.8718 67.9261 72.8718 67.9261C72.8718 67.9261 72.0039 65.9527 71.4248 64.7382C70.8463 63.5236 69.5439 62.7648 69.5439 62.7648C69.5439 62.7648 70.2671 60.7915 71.7141 60.7915" stroke="#263238" stroke-miterlimit="10" stroke-linecap="round" stroke-linejoin="round"/>
<path opacity="0.7" d="M65.4392 69.5715C64.8409 66.7479 60.9537 68.3168 60.9537 68.3168C60.9537 68.3168 57.0664 73.0228 51.3844 75.2187C46.3502 77.1649 38.7389 80.8334 33.7402 84.0456C34.3806 82.6952 35.0785 81.3277 35.8343 79.9247C39.7216 72.7087 46.5995 62.9832 50.4868 61.7284C52.8702 60.959 55.252 62.548 56.7394 63.8925L56.906 34.6646C56.8751 34.6705 56.8424 34.677 56.8115 34.6829C54.4967 35.1381 52.7605 36.3527 52.4712 37.8708C52.1819 39.3888 47.8416 48.952 46.3947 50.7736C44.9477 52.5951 40.3181 59.2739 39.8842 61.7024C39.4503 64.131 38.7266 65.6491 38.148 66.5602C37.5694 67.4707 32.9393 74.9087 29.6115 81.588C26.2837 88.2668 24.857 96.2758 24.9132 96.7269C24.9549 97.057 18.5154 121.553 14.4238 136.926C17.7742 129.961 23.051 118.691 26.2448 110.367C27.5021 110.237 29.9357 106.671 31.9471 103.769C34.3395 100.318 37.9279 99.3769 45.1047 93.7297C52.2815 88.0826 60.3554 80.2394 61.5514 77.1017C62.7479 73.964 66.0374 72.3951 65.4392 69.5715Z" fill="#8D4DF4"/>
<path d="M19.2684 104.179C19.2684 104.179 26.3028 102.334 35.5355 102.795C44.7682 103.256 46.9664 108.791 46.9664 108.791L46.5269 121.245C46.5269 121.245 41.6908 117.555 31.5784 116.172C21.4667 114.787 16.1904 115.71 16.1904 115.71L19.2684 104.179Z" fill="white" stroke="#263238" stroke-miterlimit="10" stroke-linecap="round" stroke-linejoin="round"/>
<path d="M47.0532 162.29L49.4344 122.317C34.0463 112.631 16.1905 115.71 16.1905 115.71L1 162.29H47.0532Z" fill="#263238" stroke="#263238" stroke-miterlimit="10" stroke-linecap="round" stroke-linejoin="round"/>
<path d="M167.145 131.585C167.145 131.585 168.646 125.287 176.9 120.17C185.154 115.053 197.536 117.021 197.536 117.021L199.411 122.139C199.411 122.139 189.281 121.745 181.777 126.075C174.273 130.405 170.521 135.523 170.521 135.523L167.145 131.585Z" fill="white" stroke="#263238" stroke-miterlimit="10" stroke-linecap="round" stroke-linejoin="round"/>
<path d="M223 162.29L200.74 120.529C200.74 120.529 192.282 118.202 182.152 122.532C172.022 126.862 167.895 135.128 167.895 135.128L172.15 162.29H223Z" fill="#263238" stroke="#263238" stroke-miterlimit="10" stroke-linecap="round" stroke-linejoin="round"/>
<path d="M172.737 136.388C173.021 137.659 172.679 138.829 171.973 139.002C171.267 139.177 170.464 138.288 170.18 137.018C169.896 135.748 170.238 134.577 170.944 134.404C171.65 134.23 172.453 135.118 172.737 136.388Z" fill="white"/>
</svg>
